<svg width="468" height="468" viewBox="0 0 468 468" fill="none" xmlns="http://www.w3.org/2000/svg">
<path d="M11.7236 231.199C11.7127 270.52 21.9869 308.914 41.5232 342.756L9.85522 458.381L128.183 427.355C160.911 445.172 197.58 454.507 234.844 454.51H234.941C357.955 454.51 458.09 354.41 458.143 231.375C458.167 171.756 434.97 115.694 392.824 73.5159C350.686 31.3415 294.644 8.10292 234.932 8.07571C111.905 8.07571 11.7762 108.17 11.7254 231.199" fill="url(#paint0_linear_94_9)"/>
<path d="M3.7549 231.127C3.7422 271.863 14.3847 311.63 34.6175 346.683L1.81396 466.453L124.385 434.315C158.157 452.728 196.181 462.437 234.873 462.451H234.972C362.399 462.451 466.132 358.751 466.186 231.312C466.208 169.55 442.177 111.473 398.526 67.7838C354.869 24.1002 296.823 0.0253954 234.972 0C107.524 0 3.80569 103.686 3.7549 231.127ZM76.7484 340.646L72.1718 333.381C52.933 302.791 42.7785 267.44 42.793 231.141C42.8347 125.215 129.041 39.0363 235.045 39.0363C286.38 39.058 334.624 59.0696 370.91 95.3777C407.194 131.689 427.161 179.959 427.148 231.297C427.101 337.223 340.893 423.413 234.972 423.413H234.896C200.407 423.395 166.583 414.133 137.084 396.63L130.064 392.467L57.3282 411.537L76.7484 340.644V340.646Z" fill="url(#paint1_linear_94_9)"/>
<path d="M177.183 134.501C172.855 124.882 168.3 124.688 164.185 124.519C160.814 124.374 156.961 124.385 153.112 124.385C149.259 124.385 142.999 125.834 137.708 131.611C132.411 137.394 117.486 151.369 117.486 179.792C117.486 208.216 138.189 235.685 141.075 239.543C143.964 243.394 181.042 303.589 239.763 326.746C288.565 345.99 298.497 342.162 309.089 341.197C319.682 340.236 343.271 327.226 348.083 313.736C352.899 300.247 352.899 288.685 351.455 286.269C350.011 283.862 346.158 282.416 340.381 279.528C334.602 276.639 306.199 262.662 300.904 260.734C295.607 258.808 291.756 257.846 287.903 263.631C284.051 269.407 272.987 282.416 269.615 286.269C266.247 290.131 262.874 290.612 257.099 287.722C251.318 284.823 232.712 278.73 210.638 259.051C193.464 243.737 181.869 224.827 178.498 219.042C175.128 213.267 178.137 210.136 181.034 207.257C183.63 204.668 186.814 200.511 189.705 197.139C192.586 193.765 193.547 191.358 195.473 187.505C197.402 183.648 196.437 180.274 194.995 177.385C193.547 174.495 182.32 145.923 177.183 134.501Z" fill="white"/>
<defs>
<linearGradient id="paint0_linear_94_9" x1="22424.2" y1="45038.6" x2="22424.2" y2="8.07571" gradientUnits="userSpaceOnUse">
<stop stop-color="#FF7D26"/>
<stop offset="1" stop-color="#ED7D31"/>
</linearGradient>
<linearGradient id="paint1_linear_94_9" x1="23220.4" y1="46645.3" x2="23220.4" y2="0" gradientUnits="userSpaceOnUse">
<stop stop-color="#F9F9F9"/>
<stop offset="1" stop-color="white"/>
</linearGradient>
</defs>
</svg>
